<svg fill="none" height="40" viewBox="0 0 135 40" width="135" xmlns="http://www.w3.org/2000/svg" xmlns:xlink="http://www.w3.org/1999/xlink"><linearGradient id="a" gradientUnits="userSpaceOnUse" x1="21.7997" x2="5.01733" y1="8.7097" y2="25.4921"><stop offset="0" stop-color="#00a0ff"/><stop offset=".00657445" stop-color="#00a1ff"/><stop offset=".2601" stop-color="#00beff"/><stop offset=".5122" stop-color="#00d2ff"/><stop offset=".7604" stop-color="#00dfff"/><stop offset="1" stop-color="#00e3ff"/></linearGradient><linearGradient id="b" gradientUnits="userSpaceOnUse" x1="33.8344" x2="9.63753" y1="20.0014" y2="20.0014"><stop offset="0" stop-color="#ffe000"/><stop offset=".4087" stop-color="#ffbd00"/><stop offset=".7754" stop-color="#ffa500"/><stop offset="1" stop-color="#ff9c00"/></linearGradient><linearGradient id="c" gradientUnits="userSpaceOnUse" x1="24.827" x2="2.06873" y1="22.2961" y2="45.0544"><stop offset="0" stop-color="#ff3a44"/><stop offset="1" stop-color="#c31162"/></linearGradient><linearGradient id="d" gradientUnits="userSpaceOnUse" x1="7.29732" x2="17.4599" y1=".17619" y2="10.3387"><stop offset="0" stop-color="#32a071"/><stop offset=".0685" stop-color="#2da771"/><stop offset=".4762" stop-color="#15cf74"/><stop offset=".8009" stop-color="#06e775"/><stop offset="1" stop-color="#00f076"/></linearGradient><clipPath id="e"><path d="m0 0h135v40h-135z"/></clipPath><g clip-path="url(#e)"><path d="m130 40h-125c-2.8 0-5-2.2-5-5v-30c0-2.8 2.2-5 5-5h125c2.8 0 5 2.2 5 5v30c0 2.7-2.2 5-5 5z" fill="#000"/><path d="m130 .8c2.3 0 4.2 1.9 4.2 4.2v30c0 2.3-1.9 4.2-4.2 4.2h-125c-2.3 0-4.2-1.9-4.2-4.2v-30c0-2.3 1.9-4.2 4.2-4.2zm0-.8h-125c-2.8 0-5 2.2-5 5v30c0 2.8 2.2 5 5 5h125c2.8 0 5-2.2 5-5v-30c0-2.7-2.2-5-5-5z" fill="#a6a6a6"/><path d="m68.1 21.8c-2.4 0-4.3 1.8-4.3 4.3 0 2.4 1.9 4.3 4.3 4.3s4.3-1.8 4.3-4.3c0-2.6-1.9-4.3-4.3-4.3zm0 6.8c-1.3 0-2.4-1.1-2.4-2.6s1.1-2.6 2.4-2.6 2.4 1 2.4 2.6c0 1.5-1.1 2.6-2.4 2.6zm-9.3-6.8c-2.4 0-4.3 1.8-4.3 4.3 0 2.4 1.9 4.3 4.3 4.3s4.3-1.8 4.3-4.3c0-2.6-1.9-4.3-4.3-4.3zm0 6.8c-1.3 0-2.4-1.1-2.4-2.6s1.1-2.6 2.4-2.6 2.4 1 2.4 2.6c0 1.5-1.1 2.6-2.4 2.6zm-11.1-5.5v1.8h4.3c-.1 1-.5 1.8-1 2.3-.6.6-1.6 1.3-3.3 1.3-2.7 0-4.7-2.1-4.7-4.8s2.1-4.8 4.7-4.8c1.4 0 2.5.6 3.3 1.3l1.3-1.3c-1.1-1-2.5-1.8-4.5-1.8-3.6 0-6.7 3-6.7 6.6s3.1 6.6 6.7 6.6c2 0 3.4-.6 4.6-1.9 1.2-1.2 1.6-2.9 1.6-4.2 0-.4 0-.8-.1-1.1zm45.4 1.4c-.4-1-1.4-2.7-3.6-2.7s-4 1.7-4 4.3c0 2.4 1.8 4.3 4.2 4.3 1.9 0 3.1-1.2 3.5-1.9l-1.4-1c-.5.7-1.1 1.2-2.1 1.2s-1.6-.4-2.1-1.3l5.7-2.4zm-5.8 1.4c0-1.6 1.3-2.5 2.2-2.5.7 0 1.4.4 1.6.9zm-4.7 4.1h1.9v-12.5h-1.9zm-3-7.3c-.5-.5-1.3-1-2.3-1-2.1 0-4.1 1.9-4.1 4.3s1.9 4.2 4.1 4.2c1 0 1.8-.5 2.2-1h.1v.6c0 1.6-.9 2.5-2.3 2.5-1.1 0-1.9-.8-2.1-1.5l-1.6.7c.5 1.1 1.7 2.5 3.8 2.5 2.2 0 4-1.3 4-4.4v-7.6h-1.8zm-2.2 5.9c-1.3 0-2.4-1.1-2.4-2.6s1.1-2.6 2.4-2.6 2.3 1.1 2.3 2.6-1 2.6-2.3 2.6zm24.4-11.1h-4.5v12.5h1.9v-4.7h2.6c2.1 0 4.1-1.5 4.1-3.9s-2-3.9-4.1-3.9zm.1 6h-2.7v-4.3h2.7c1.4 0 2.2 1.2 2.2 2.1-.1 1.1-.9 2.2-2.2 2.2zm11.5-1.8c-1.4 0-2.8.6-3.3 1.9l1.7.7c.4-.7 1-.9 1.7-.9 1 0 1.9.6 2 1.6v.1c-.3-.2-1.1-.5-1.9-.5-1.8 0-3.6 1-3.6 2.8 0 1.7 1.5 2.8 3.1 2.8 1.3 0 1.9-.6 2.4-1.2h.1v1h1.8v-4.8c-.2-2.2-1.9-3.5-4-3.5zm-.2 6.9c-.6 0-1.5-.3-1.5-1.1 0-1 1.1-1.3 2-1.3.8 0 1.2.2 1.7.4-.2 1.2-1.2 2-2.2 2zm10.5-6.6-2.1 5.4h-.1l-2.2-5.4h-2l3.3 7.6-1.9 4.2h1.9l5.1-11.8zm-16.8 8h1.9v-12.5h-1.9z" fill="#fff"/><path d="m10.4 7.5c-.3.3-.49998.8-.49998 1.4v22.1c0 .6.19998 1.1.49998 1.4l.1.1 12.4-12.4v-.1-.1z" fill="url(#a)"/><path d="m27 24.3-4.1-4.1v-.2-.1l4.1-4.1.1.1 4.9 2.8c1.4.8 1.4 2.1 0 2.9z" fill="url(#b)"/><path d="m27.1 24.2-4.2-4.2-12.5 12.5c.5.5 1.2.5 2.1.1z" fill="url(#c)"/><path d="m27.1 15.8-14.6-8.30001c-.9-.5-1.6-.4-2.1.1l12.5 12.40001z" fill="url(#d)"/><path d="m27 24.1-14.5 8.2c-.8.5-1.5.4-2 0l-.1.1.1.1c.5.4 1.2.5 2 0z" fill="#000" opacity=".2"/><path d="m10.4 32.3c-.3-.3-.4-.8-.4-1.4v.1c0 .6.2 1.1.5 1.4v-.1z" fill="#000" opacity=".12"/><path d="m32 21.3-5 2.8.1.1 4.9-2.8c.7-.4 1-.9 1-1.4 0 .5-.4.9-1 1.3z" fill="#000" opacity=".12"/><g fill="#fff"><path d="m12.5 7.6 19.5 11.1c.6.4 1 .8 1 1.3 0-.5-.3-1-1-1.4l-19.5-11.1c-1.4-.8-2.5-.1-2.5 1.5v.1c0-1.6 1.1-2.3 2.5-1.5z" opacity=".25"/><path d="m41.3 13v-6h1.8c.9 0 1.7.3 2.2.8.6.6.8 1.3.8 2.2s-.3 1.6-.8 2.2c-.5.5-1.3.8-2.2.8zm.7-.7h1.1c.7 0 1.2-.2 1.6-.6s.6-1 .6-1.7-.2-1.3-.6-1.7-1-.6-1.6-.6h-1.1z" stroke="#fff" stroke-miterlimit="10" stroke-width=".2"/><path d="m47.2 13v-6h.8v6z" stroke="#fff" stroke-miterlimit="10" stroke-width=".2"/><path d="m51.1 13.1c-.4 0-.9-.1-1.3-.4s-.7-.7-.8-1.2l.7-.3c.1.3.3.6.5.8.3.2.6.3.9.3s.6-.1.9-.3c.2-.2.4-.4.4-.7s-.1-.6-.4-.8c-.2-.2-.6-.4-1.1-.50001-.5-.2-.9-.4-1.2-.6-.3-.3-.4-.6-.4-1s.2-.8.5-1.1.8-.5 1.3-.5.9.1 1.2.4.5.5.6.8l-.7.3c-.1-.2-.2-.4-.4-.5-.2-.2-.5-.2-.8-.2s-.5.1-.8.2c-.1.2-.2.4-.2.7 0 .2.1.4.3.6s.5.3.9.4c.3.1.5.2.7.3s.4.2.6.40001c.2.1.4.3.5.6.1.2.2.5.2.8s-.1.6-.2.8-.3.4-.5.5c-.3 0-.5.1-.7.1-.3.1-.5.1-.7.1z" stroke="#fff" stroke-miterlimit="10" stroke-width=".2"/><path d="m55 13h-.8v-6h2c.5 0 .9.2 1.3.5s.6.8.6 1.3-.2.9-.6 1.3c-.4.3-.8.5-1.3.5h-1.2zm0-3.2h1.3c.3 0 .6-.1.8-.3s.3-.5.3-.7c0-.3-.1-.5-.3-.7s-.5-.3-.8-.3h-1.3z" stroke="#fff" stroke-miterlimit="10" stroke-width=".2"/><path d="m64 12.2c-.6.6-1.3.9-2.2.9s-1.6-.3-2.2-.9-.9-1.3-.9-2.20001c0-.9.3-1.6.9-2.2s1.3-.9 2.2-.9 1.6.3 2.2.9.9 1.3.9 2.2c0 .90001-.3 1.60001-.9 2.20001zm-3.8-.5c.4.4 1 .7 1.6.7s1.2-.2 1.6-.7c.4-.4.7-1 .7-1.70001 0-.7-.2-1.3-.7-1.7-.4-.4-1-.7-1.6-.7s-1.2.2-1.6.7c-.4.4-.7 1-.7 1.7 0 .70001.2 1.30001.7 1.70001z" stroke="#fff" stroke-miterlimit="10" stroke-width=".2"/><path d="m65.9 13v-6h.9l2.9 4.7v-1.2-3.5h.8v6h-.8l-3.1-4.9v1.2 3.7z" stroke="#fff" stroke-miterlimit="10" stroke-width=".2"/><path d="m71.9 13v-6h.8v6z" stroke="#fff" stroke-miterlimit="10" stroke-width=".2"/><path d="m74.1 13v-6h2.2c.5 0 .9.2 1.2.5s.5.7.5 1.2c0 .3-.1.5-.2.8-.1.2-.3.4-.6.5.3.1.5.3.7.5s.3.5.3.9c0 .5-.2.9-.5 1.2-.4.3-.8.5-1.3.5h-2.3zm.8-3.4h1.4c.3 0 .5-.1.7-.3s.3-.4.3-.6-.2-.5-.3-.7c-.2-.2-.4-.3-.7-.3h-1.4zm0 2.7h1.6c.3 0 .5-.1.7-.3s.3-.4.3-.7c0-.2-.1-.5-.3-.7s-.4-.3-.7-.3h-1.5v2z" stroke="#fff" stroke-miterlimit="10" stroke-width=".2"/><path d="m79.2 13v-6h.8v5.3h2.6v.7z" stroke="#fff" stroke-miterlimit="10" stroke-width=".2"/><path d="m87.1 7.7h-2.7v1.9h2.5v.7h-2.5v1.9h2.7v.8h-3.5v-6h3.5z" stroke="#fff" stroke-miterlimit="10" stroke-width=".2"/><path d="m91.7 13.1c-.4 0-.9-.1-1.3-.4s-.7-.7-.8-1.2l.7-.3c.1.3.3.6.5.8.3.2.6.3.9.3s.6-.1.9-.3c.2-.2.4-.4.4-.7s-.1-.6-.4-.8c-.2-.2-.6-.4-1.1-.50001-.5-.2-.9-.4-1.2-.6-.3-.3-.4-.6-.4-1s.2-.8.5-1.1.8-.5 1.3-.5.9.1 1.2.4.5.5.6.8l-.7.3c-.1-.2-.2-.4-.4-.5-.2-.2-.5-.2-.8-.2s-.5.1-.8.2c-.2.2-.3.4-.3.6s.1.4.3.6.5.3.9.4c.3.1.5.2.7.3s.4.2.6.40001c.2.1.4.3.5.6.1.2.2.5.2.8s-.1.6-.2.8-.3.4-.5.5-.4.2-.6.3c-.2 0-.4 0-.7 0z" stroke="#fff" stroke-miterlimit="10" stroke-width=".2"/><path d="m96.9 13.1c-.7 0-1.2-.2-1.6-.7-.4-.4-.6-1-.6-1.7v-3.7h.8v3.8c0 .5.1.9.4 1.2.2.3.6.4 1.1.4s.8-.1 1.1-.4c.2-.3.4-.7.4-1.2v-3.8h.8v3.8c0 .7-.2 1.3-.6 1.7-.5.4-1.1.6-1.8.6z" stroke="#fff" stroke-miterlimit="10" stroke-width=".2"/><path d="m100.4 13v-6h2c.5 0 .9.2 1.3.5s.6.8.6 1.3c0 .4-.1.8-.4 1.1s-.6.5-1 .6l1.7 2.4h-.9l-1.6-2.4h-.9v2.5zm.8-3.2h1.2c.3 0 .6-.1.8-.3s.3-.5.3-.8-.1-.5-.3-.7-.5-.3-.8-.3h-1.3v2.1z" stroke="#fff" stroke-miterlimit="10" stroke-width=".2"/></g></g></svg>